<?xml version="1.0" encoding="utf-8"?>
<!-- Generator: Adobe Illustrator 22.1.0, SVG Export Plug-In . SVG Version: 6.00 Build 0)  -->
<svg version="1.1" id="Layer_1" xmlns="http://www.w3.org/2000/svg" xmlns:xlink="http://www.w3.org/1999/xlink" x="0px" y="0px"
	 viewBox="0 0 576 384" style="enable-background:new 0 0 576 384;" xml:space="preserve">
<style type="text/css">
	.st0{fill:#B797B7;}
	.st1{fill:none;stroke:#000000;stroke-width:4;stroke-miterlimit:10;}
	.st2{fill:none;stroke:#000000;stroke-width:4;stroke-miterlimit:10;stroke-dasharray:12.0683,12.0683;}
	.st3{fill:none;stroke:#000000;stroke-width:4;stroke-miterlimit:10;stroke-dasharray:11.8085,11.8085;}
	.st4{fill:none;stroke:#000000;stroke-width:4;stroke-miterlimit:10;stroke-dasharray:12.0455,12.0455;}
	.st5{opacity:0.5;}
	.st6{fill:#9B0090;}
</style>
<polygon class="st0" points="79.9,1 -0.1,385 576,385 495.9,1 "/>
<g>
	<g>
		<polyline class="st1" points="89.3,3 83.3,3 82,8.9 		"/>
		<line class="st2" x1="79.6" y1="20.7" x2="7" y2="369.2"/>
		<polyline class="st1" points="5.7,375.1 4.5,381 10.5,381 		"/>
		<line class="st3" x1="22.3" y1="381" x2="559.6" y2="381"/>
		<polyline class="st1" points="565.5,381 571.5,381 570.3,375.1 		"/>
		<line class="st2" x1="567.8" y1="363.3" x2="495.2" y2="14.8"/>
		<polyline class="st1" points="494,8.9 492.8,3 486.8,3 		"/>
		<line class="st4" x1="474.7" y1="3" x2="95.3" y2="3"/>
	</g>
</g>
<g class="st5">
	<polygon class="st6" points="0,0 0,384 80,0 	"/>
</g>
<g class="st5">
	<polygon class="st6" points="496,0 576,384 576,0 	"/>
</g>
</svg>
