<?xml version="1.0" encoding="utf-8"?>
<!-- Generator: Adobe Illustrator 22.1.0, SVG Export Plug-In . SVG Version: 6.00 Build 0)  -->
<svg version="1.1" id="Layer_1" xmlns="http://www.w3.org/2000/svg" xmlns:xlink="http://www.w3.org/1999/xlink" x="0px" y="0px"
	 viewBox="0 0 432 288" style="enable-background:new 0 0 432 288;" xml:space="preserve">
<style type="text/css">
	.st0{fill:none;stroke:#000000;stroke-width:3;stroke-miterlimit:10;}
	.st1{fill:none;stroke:#000000;stroke-width:3;stroke-miterlimit:10;stroke-dasharray:7.0329,7.0329;}
	.st2{fill:none;stroke:#000000;stroke-width:3;stroke-miterlimit:10;stroke-dasharray:6.9531,6.9531;}
	.st3{fill:none;stroke:#000000;stroke-width:3;stroke-miterlimit:10;stroke-dasharray:7.123,7.123;}
	.st4{opacity:0.5;}
	.st5{fill:#9B0090;}
</style>
<g>
	<g>
		<g>
			<polyline class="st0" points="66.8,2.3 62.3,2.3 61.4,6.7 			"/>
		</g>
		<g>
			<g>
				<line class="st0" x1="59.6" y1="15.5" x2="58.8" y2="19"/>
				<line class="st1" x1="57.4" y1="25.8" x2="6.5" y2="270.3"/>
				<line class="st0" x1="5.8" y1="273.7" x2="5.1" y2="277.1"/>
			</g>
		</g>
		<g>
			<polyline class="st0" points="4.1,281.6 3.2,286 7.7,286 			"/>
		</g>
		<g>
			<g>
				<line class="st0" x1="16.5" y1="286" x2="20" y2="286"/>
				<line class="st2" x1="27" y1="286" x2="412.9" y2="286"/>
				<line class="st0" x1="416.4" y1="286" x2="419.9" y2="286"/>
			</g>
		</g>
		<g>
			<polyline class="st0" points="424.3,286 428.8,286 427.9,281.6 			"/>
		</g>
		<g>
			<g>
				<line class="st0" x1="426" y1="272.7" x2="425.3" y2="269.3"/>
				<line class="st1" x1="423.9" y1="262.4" x2="373" y2="18"/>
				<line class="st0" x1="372.2" y1="14.5" x2="371.5" y2="11.1"/>
			</g>
		</g>
		<g>
			<polyline class="st0" points="370.6,6.7 369.7,2.3 365.2,2.3 			"/>
		</g>
		<g>
			<g>
				<line class="st0" x1="356.1" y1="2.3" x2="352.6" y2="2.3"/>
				<line class="st3" x1="345.5" y1="2.3" x2="78.4" y2="2.3"/>
				<line class="st0" x1="74.8" y1="2.3" x2="71.3" y2="2.3"/>
			</g>
		</g>
	</g>
</g>
<g class="st4">
	<polygon class="st5" points="-0.2,0 -0.2,288.2 59.9,0 	"/>
</g>
<g class="st4">
	<polygon class="st5" points="372.1,0 432.2,288.2 432.2,0 	"/>
</g>
</svg>
